<?xml version="1.0" encoding="UTF-8"?>
<svg width="273px" height="27px" viewBox="0 0 273 27" version="1.1" xmlns="http://www.w3.org/2000/svg" xmlns:xlink="http://www.w3.org/1999/xlink">
    <title>Group</title>
    <g id="Page-1" stroke="none" stroke-width="1" fill="none" fill-rule="evenodd">
        <g id="Group" transform="translate(0.748000, 0.400000)" fill="#000000" fill-rule="nonzero">
            <g id="W" transform="translate(-0.000000, 0.000000)">
                <path d="M6.346,26.6 L5.68434189e-14,2.84217094e-14 L2.774,2.84217094e-14 L6.764,17.1 C7.24533333,19.1013333 7.524,21.47 7.6,24.206 L8.968,24.206 C9.01866667,22.078 9.41133333,19.722 10.146,17.138 L15.124,2.84217094e-14 L18.24,2.84217094e-14 L23.294,18.278 C23.8513333,20.3553333 24.168,22.3313333 24.244,24.206 L25.574,24.206 C25.7006667,21.1153333 25.992,18.696 26.448,16.948 L30.628,2.84217094e-14 L33.402,2.84217094e-14 L26.638,26.6 L23.028,26.6 L18.05,8.854 C17.5433333,7.03 17.2773333,4.87666667 17.252,2.394 L15.922,2.394 C15.8966667,5.00333333 15.6306667,7.15666667 15.124,8.854 L10.032,26.6 L6.346,26.6 Z" id="Path"></path>
            </g>
            <g id="Y" transform="translate(34.544000, 0.000000)">
                <path d="M9.538,26.6 L9.538,15.2 L5.68434189e-14,2.84217094e-14 L3.192,2.84217094e-14 L8.664,8.892 C9.70266667,10.64 10.2346667,12.2233333 10.26,13.642 L11.59,13.642 C11.6153333,12.122 12.122,10.526 13.11,8.854 L18.354,2.84217094e-14 L21.584,2.84217094e-14 L12.198,15.086 L12.198,26.6 L9.538,26.6 Z" id="Path"></path>
            </g>
            <g id="N" transform="translate(58.394000, 0.000000)">
                <path d="M0,26.6 L0,2.84217094e-14 L4.142,2.84217094e-14 L19.304,23.484 L20.444,22.724 C19.9373333,21.8373333 19.5953333,21.014 19.418,20.254 C19.2406667,19.5193333 19.152,18.392 19.152,16.872 L19.152,2.84217094e-14 L21.812,2.84217094e-14 L21.812,26.6 L18.24,26.6 L2.66,2.432 L1.482,3.154 C1.938,4.01533333 2.242,4.91466667 2.394,5.852 C2.57133333,6.71333333 2.66,7.942 2.66,9.538 L2.66,26.6 L0,26.6 Z" id="Path"></path>
            </g>
            <g id="N" transform="translate(103.394000, 0.000000)">
                <path d="M0,26.6 L0,2.84217094e-14 L4.142,2.84217094e-14 L19.304,23.484 L20.444,22.724 C19.9373333,21.8373333 19.5953333,21.014 19.418,20.254 C19.2406667,19.5193333 19.152,18.392 19.152,16.872 L19.152,2.84217094e-14 L21.812,2.84217094e-14 L21.812,26.6 L18.24,26.6 L2.66,2.432 L1.482,3.154 C1.938,4.01533333 2.242,4.91466667 2.394,5.852 C2.57133333,6.71333333 2.66,7.942 2.66,9.538 L2.66,26.6 L0,26.6 Z" id="Path"></path>
            </g>
            <g id="E" transform="translate(82.394000, 0.000000)">
                <polygon id="Path" points="-5.68434189e-14 26.6 -5.68434189e-14 2.84217094e-14 18.126 2.84217094e-14 18.126 2.508 2.66 2.508 2.66 11.552 14.25 11.552 14.25 13.984 2.66 13.984 2.66 24.092 18.126 24.092 18.126 26.6"></polygon>
            </g>
            <g id="T" transform="translate(127.708000, 0.000000)">
                <polygon id="Path" points="9.652 26.6 9.652 2.508 0 2.508 0 2.84217094e-14 22.458 2.84217094e-14 22.458 2.508 12.312 2.508 12.312 26.6"></polygon>
            </g>
            <g id="A" transform="translate(149.126000, 0.000000)">
                <path d="M20.634,26.6 L17.86,18.886 L5.738,18.886 L2.926,26.6 L0,26.6 L10.032,2.84217094e-14 L13.756,2.84217094e-14 L23.636,26.6 L20.634,26.6 Z M6.65,16.378 L16.948,16.378 L13.566,7.106 C12.8566667,5.13 12.502,3.42 12.502,1.976 L11.134,1.976 C11.1086667,3.344 10.7413333,5.054 10.032,7.106 L6.65,16.378 Z" id="Shape"></path>
            </g>
            <g id="L" transform="translate(174.394000, 0.000000)">
                <polygon id="Path" points="0 26.6 0 2.84217094e-14 2.66 2.84217094e-14 2.66 24.054 17.1 24.054 17.1 26.6"></polygon>
            </g>
            <g id="B" transform="translate(205.394000, 0.000000)">
                <path d="M5.68434189e-14,26.6 L5.68434189e-14,2.84217094e-14 L11.02,2.84217094e-14 C13.5533333,2.84217094e-14 15.5103333,0.589 16.891,1.767 C18.2716667,2.945 18.962,4.49666667 18.962,6.422 C18.962,8.06866667 18.487,9.367 17.537,10.317 C16.587,11.267 15.3773333,11.818 13.908,11.97 L13.908,13.262 C15.6053333,13.3886667 17.043,13.984 18.221,15.048 C19.399,16.112 19.988,17.5813333 19.988,19.456 C19.988,21.6853333 19.2153333,23.4333333 17.67,24.7 C16.1246667,25.9666667 14.1613333,26.6 11.78,26.6 L5.68434189e-14,26.6 Z M2.66,11.552 L10.64,11.552 C12.3626667,11.552 13.7116667,11.1276667 14.687,10.279 C15.6623333,9.43033333 16.15,8.29666667 16.15,6.878 C16.15,5.53533333 15.6686667,4.47133333 14.706,3.686 C13.7433333,2.90066667 12.4133333,2.508 10.716,2.508 L2.66,2.508 L2.66,11.552 Z M2.66,24.092 L11.4,24.092 C13.1226667,24.092 14.5096667,23.6106667 15.561,22.648 C16.6123333,21.6853333 17.138,20.4693333 17.138,19 C17.138,17.5053333 16.6186667,16.302 15.58,15.39 C14.5413333,14.478 13.1226667,14.022 11.324,14.022 L2.66,14.022 L2.66,24.092 Z" id="Shape"></path>
            </g>
            <g id="A" transform="translate(226.126000, 0.000000)">
                <path d="M20.634,26.6 L17.86,18.886 L5.738,18.886 L2.926,26.6 L0,26.6 L10.032,2.84217094e-14 L13.756,2.84217094e-14 L23.636,26.6 L20.634,26.6 Z M6.65,16.378 L16.948,16.378 L13.566,7.106 C12.8566667,5.13 12.502,3.42 12.502,1.976 L11.134,1.976 C11.1086667,3.344 10.7413333,5.054 10.032,7.106 L6.65,16.378 Z" id="Shape"></path>
            </g>
            <g id="R" transform="translate(252.394000, 0.000000)">
                <path d="M0,26.6 L0,2.84217094e-14 L10.488,2.84217094e-14 C12.9706667,2.84217094e-14 14.972,0.677666667 16.492,2.033 C18.012,3.38833333 18.772,5.11733333 18.772,7.22 C18.772,9.01866667 18.2083333,10.4373333 17.081,11.476 C15.9536667,12.5146667 14.516,13.1353333 12.768,13.338 L12.768,14.668 C14.3386667,14.6933333 15.4913333,15.086 16.226,15.846 C16.9606667,16.606 17.5306667,17.8473333 17.936,19.57 L19.456,26.6 L16.53,26.6 L15.2,19.836 C14.8453333,18.164 14.1993333,16.9606667 13.262,16.226 C12.3246667,15.4913333 10.9186667,15.124 9.044,15.124 L2.66,15.124 L2.66,26.6 L0,26.6 Z M2.66,12.654 L10.108,12.654 C11.8813333,12.654 13.3,12.2106667 14.364,11.324 C15.428,10.4373333 15.96,9.18333333 15.96,7.562 C15.96,5.94066667 15.428,4.693 14.364,3.819 C13.3,2.945 11.894,2.508 10.146,2.508 L2.66,2.508 L2.66,12.654 Z" id="Shape"></path>
            </g>
        </g>
    </g>
</svg>